<svg xmlns="http://www.w3.org/2000/svg" xmlns:xlink="http://www.w3.org/1999/xlink" width="420" zoomAndPan="magnify" viewBox="0 0 315 234.749995" height="313" preserveAspectRatio="xMidYMid meet" version="1.0"><defs><g/><clipPath id="3af8e74e35"><path d="M 15.089844 9.558594 L 215.398438 9.558594 L 215.398438 209.867188 L 15.089844 209.867188 Z M 15.089844 9.558594 " clip-rule="nonzero"/></clipPath><clipPath id="91349562c7"><path d="M 115.246094 9.558594 C 59.929688 9.558594 15.089844 54.398438 15.089844 109.714844 C 15.089844 165.027344 59.929688 209.867188 115.246094 209.867188 C 170.558594 209.867188 215.398438 165.027344 215.398438 109.714844 C 215.398438 54.398438 170.558594 9.558594 115.246094 9.558594 Z M 115.246094 9.558594 " clip-rule="nonzero"/></clipPath><clipPath id="a8dd0ca46d"><path d="M 0.0898438 0.558594 L 200.398438 0.558594 L 200.398438 200.867188 L 0.0898438 200.867188 Z M 0.0898438 0.558594 " clip-rule="nonzero"/></clipPath><clipPath id="62e449f06a"><path d="M 100.246094 0.558594 C 44.929688 0.558594 0.0898438 45.398438 0.0898438 100.714844 C 0.0898438 156.027344 44.929688 200.867188 100.246094 200.867188 C 155.558594 200.867188 200.398438 156.027344 200.398438 100.714844 C 200.398438 45.398438 155.558594 0.558594 100.246094 0.558594 Z M 100.246094 0.558594 " clip-rule="nonzero"/></clipPath><clipPath id="efd3eb0641"><rect x="0" width="201" y="0" height="201"/></clipPath><clipPath id="b6f77a607b"><rect x="0" width="94" y="0" height="148"/></clipPath></defs><g clip-path="url(#3af8e74e35)"><g clip-path="url(#91349562c7)"><g transform="matrix(1, 0, 0, 1, 15, 9)"><g clip-path="url(#efd3eb0641)"><g clip-path="url(#a8dd0ca46d)"><g clip-path="url(#62e449f06a)"><path fill="#ffffff" d="M 0.0898438 0.558594 L 200.398438 0.558594 L 200.398438 200.867188 L 0.0898438 200.867188 Z M 0.0898438 0.558594 " fill-opacity="1" fill-rule="nonzero"/></g></g></g></g></g></g><path fill="#1ed760" d="M 119.398438 3.226562 C 60.617188 0.886719 11.074219 46.691406 8.75 105.535156 C 6.410156 164.375 52.175781 213.960938 110.949219 216.300781 C 169.730469 218.640625 219.265625 172.835938 221.601562 113.992188 C 223.929688 55.148438 178.171875 5.554688 119.398438 3.226562 Z M 164.359375 159.425781 C 163.035156 161.765625 160.453125 162.933594 157.941406 162.582031 C 157.171875 162.476562 156.402344 162.222656 155.683594 161.8125 C 141.605469 153.792969 126.261719 148.570312 110.082031 146.289062 C 93.902344 144.007812 77.714844 144.796875 61.972656 148.628906 C 58.554688 149.457031 55.117188 147.359375 54.289062 143.941406 C 53.460938 140.519531 55.554688 137.078125 58.972656 136.25 C 76.28125 132.042969 94.078125 131.171875 111.855469 133.679688 C 129.632812 136.183594 146.492188 141.921875 161.984375 150.742188 C 165.03125 152.488281 166.101562 156.367188 164.367188 159.425781 Z M 178.355469 131.4375 C 176.1875 135.453125 171.164062 136.953125 167.152344 134.78125 C 150.679688 125.863281 132.84375 120.003906 114.144531 117.375 C 95.441406 114.742188 76.691406 115.453125 58.398438 119.480469 C 57.40625 119.695312 56.421875 119.734375 55.46875 119.597656 C 52.148438 119.128906 49.304688 116.652344 48.546875 113.175781 C 47.5625 108.710938 50.386719 104.296875 54.84375 103.3125 C 75.066406 98.859375 95.792969 98.070312 116.449219 100.972656 C 137.097656 103.875 156.8125 110.347656 175.019531 120.210938 C 179.039062 122.382812 180.527344 127.402344 178.355469 131.425781 Z M 193.875 99.882812 C 191.832031 103.816406 187.578125 105.855469 183.429688 105.269531 C 182.308594 105.113281 181.210938 104.761719 180.148438 104.21875 C 160.96875 94.230469 140.3125 87.632812 118.746094 84.601562 C 97.183594 81.570312 75.503906 82.210938 54.320312 86.519531 C 48.808594 87.640625 43.445312 84.074219 42.324219 78.566406 C 41.207031 73.050781 44.769531 67.683594 50.269531 66.5625 C 73.730469 61.796875 97.71875 61.085938 121.582031 64.4375 C 145.441406 67.789062 168.300781 75.097656 189.542969 86.160156 C 194.527344 88.75 196.464844 94.902344 193.875 99.890625 Z M 193.875 99.882812 " fill-opacity="1" fill-rule="nonzero"/><g transform="matrix(1, 0, 0, 1, 170, 51)"><g clip-path="url(#b6f77a607b)"><g fill="#000000" fill-opacity="1"><g transform="translate(11.646944, 102.611396)"><g><path d="M 20.890625 -18.3125 L 22.078125 -21.78125 C 23.128906 -24.789062 24.675781 -27.1875 26.71875 -28.96875 C 28.769531 -30.75 31.941406 -32.300781 36.234375 -33.625 C 40.347656 -34.84375 43.179688 -36.003906 44.734375 -37.109375 C 46.296875 -38.222656 47.390625 -39.6875 48.015625 -41.5 C 48.722656 -43.539062 48.507812 -45.351562 47.375 -46.9375 C 46.238281 -48.519531 44.320312 -49.78125 41.625 -50.71875 C 36.925781 -52.34375 31.035156 -52.660156 23.953125 -51.671875 L 22.390625 -63.765625 C 30.734375 -65.253906 38.820312 -64.644531 46.65625 -61.9375 C 53.113281 -59.695312 57.707031 -56.363281 60.4375 -51.9375 C 63.175781 -47.519531 63.648438 -42.726562 61.859375 -37.5625 C 60.660156 -34.101562 58.847656 -31.390625 56.421875 -29.421875 C 53.992188 -27.460938 50.035156 -25.675781 44.546875 -24.0625 C 40.765625 -22.875 38.273438 -21.835938 37.078125 -20.953125 C 35.890625 -20.078125 34.96875 -18.695312 34.3125 -16.8125 L 33.34375 -14 Z M 13.796875 -2.75 C 14.710938 -5.382812 16.109375 -7.128906 17.984375 -7.984375 C 19.859375 -8.847656 22.144531 -8.8125 24.84375 -7.875 C 27.445312 -6.976562 29.222656 -5.59375 30.171875 -3.71875 C 31.128906 -1.851562 31.160156 0.367188 30.265625 2.953125 C 29.410156 5.421875 28.015625 7.117188 26.078125 8.046875 C 24.140625 8.972656 21.882812 8.992188 19.3125 8.109375 C 16.675781 7.191406 14.875 5.785156 13.90625 3.890625 C 12.945312 2.003906 12.910156 -0.207031 13.796875 -2.75 Z M 13.796875 -2.75 "/></g></g></g></g></g></svg>